{"title":"Underworld Awakening (2012) TS READNFO XviD-KiNGSEED","uid":7023639,"size":819992565,"categoryP":"video","categoryS":"movies","magnet":"?xt=urn:btih:abe070c63c685993df5edd37c921547f094ec6eb&amp;dn=Underworld+Awakening+%282012%29+TS+READNFO+XviD-KiNGSEED&amp;tr=udp%3A%2F%2Ftracker.openbittorrent.com%3A80&amp;tr=udp%3A%2F%2Fopen.demonii.com%3A1337&amp;tr=udp%3A%2F%2Ftracker.coppersurfer.tk%3A6969&amp;tr=udp%3A%2F%2Fexodus.desync.com%3A6969","seeders":0,"leechers":0,"uploader":"TvTeam","files":5,"time":1328932293,"description":". \n &lt;a href=&quot;\nhttp://www.torrenting.com&quot; rel=&quot;nofollow&quot; target=&quot;_NEW&quot;&gt;\nhttp://www.torrenting.com&lt;/a&gt;          :     Once &amp; For all ;)\n\n\n               www . Torrenting . Com \n\n(((((((((((((= Enjoy No RAR releases =))))))))))))))))))))\n\n\n...................................NFO:....................................\n\n.oooo    oooo  o8o  ooooo      ooo   .oooooo.     .oooooo..o oooooooooooo oooooooooooo oooooooooo.   \n`888   .8P'   `&quot;'  `888b.     `8'  d8P'  `Y8b   d8P'    `Y8 `888'     `8 `888'     `8 `888'   `Y8b  \n 888  d8'    oooo   8 `88b.    8  888           Y88bo.       888          888          888      888 \n 88888[      `888   8   `88b.  8  888            `&quot;Y8888o.   888oooo8     888oooo8     888      888 \n 888`88b.     888   8     `88b.8  888     ooooo      `&quot;Y88b  888    &quot;     888    &quot;     888      888 \n 888  `88b.   888   8       `888  `88.    .88'  oo     .d8P  888       o  888       o  888     d88' \no888o  o888o o888o o8o        `8   `Y8bood8P'   8&quot;&quot;88888P'  o888ooooood8 o888ooooood8 o888bood8P'   \n----------------------------------------------------------------------------------------------------\n                       Underworld Awakening (2012) TS READNFO XviD-KiNGSEED                              \n----------------------------------------------------------------------------------------------------\nFormat                           : AVI\nFormat/Info                      : Audio Video Interleave\nFile size                        : 771 MiB\nDuration                         : 1h 15mn\nOverall bit rate                 : 1 433 Kbps\n\nVideo\nID                               : 0\nFormat                           : MPEG-4 Visual\nFormat profile                   : Advanced Simple@L5\nFormat settings, BVOP            : 2\nFormat settings, QPel            : No\nFormat settings, GMC             : No warppoints\nFormat settings, Matrix          : Default (H.263)\nMuxing mode                      : Packed bitstream\nCodec ID                         : XVID\nCodec ID/Hint                    : XviD\nDuration                         : 1h 15mn\nBit rate                         : 1 295 Kbps\nWidth                            : 640 pixels\nHeight                           : 272 pixels\nDisplay aspect ratio             : 2.35:1\nFrame rate                       : 25.000 fps\nColor space                      : YUV\nChroma subsampling               : 4:2:0\nBit depth                        : 8 bits\nScan type                        : Progressive\nCompression mode                 : Lossy\nBits/(Pixel*Frame)               : 0.298\nStream size                      : 697 MiB (90%)\n\nAudio\nID                               : 1\nFormat                           : MPEG Audio\nFormat version                   : Version 1\nFormat profile                   : Layer 3\nMode                             : Joint stereo\nMode extension                   : MS Stereo\nCodec ID                         : 55\nCodec ID/Hint                    : MP3\nDuration                         : 1h 15mn\nBit rate mode                    : Constant\nBit rate                         : 128 Kbps\nChannel(s)                       : 2 channels\nSampling rate                    : 44.1 KHz\nCompression mode                 : Lossy\nStream size                      : 68.9 MiB (9%)\n-----------------------------------------------------------------------------------------------------\nTitle: Underworld: Awakening (2012)\n\nIMDB: &lt;a href=&quot; http://www.imdb.com/title/tt1496025/&quot; rel=&quot;nofollow&quot; target=&quot;_NEW&quot;&gt; http://www.imdb.com/title/tt1496025/&lt;/a&gt;\n\nPlot:  When human forces discover the existence of the Vampire and Lycan clans, a war to eradicate \nboth species commences. The vampire warrioress Selene leads the battle against humankind.\n-----------------------------------------------------------------------------------------------------\nSource(s): SiC (Thanks!) ;)\n\nNotes: \nBig Thanks to SiC and LittlebirD for bringing us the new audio. Video we believe is the same russian\nvideo from before. We tweaked/added loads of filters to touch up the video, won't go through them\nall but there were quite a lot. We messed with the RGB, added a little bit more colour, tweaked the\nbrightness/contrast and a slight denoise and sharpen. Once all of the tweaking was done we decided\nto re-size the video down a little. Came out pretty nice, not the best TS but not the worst either.\nSample is included so check that for the quality. Enjoy.\n\nREADNFO: First 2 minutes has CAM audio. :)\n------------------------------------------------------------------------------------------------------\nGreets: To All Of The Hard-Working p2p &amp; Scene groups + All The Source Providers.\n\nIf you have something you can offer, please contact us at: &lt;a class=&quot;__cf_email__&quot; href=&quot;/cdn-cgi/l/email-protection&quot; data-cfemail=&quot;412a282f263224242501293432296f222e2c&quot;&gt;[email&amp;#160;protected]&lt;/a&gt;&lt;script cf-hash='f9e31' type=&quot;text/javascript&quot;&gt;\n/* &lt;![CDATA[ */!function(){try{var t=&quot;currentScript&quot;in document?document.currentScript:function(){for(var t=document.getElementsByTagName(&quot;script&quot;),e=t.length;e--;)if(t[e].getAttribute(&quot;cf-hash&quot;))return t[e]}();if(t&amp;&amp;t.previousSibling){var e,r,n,i,c=t.previousSibling,a=c.getAttribute(&quot;data-cfemail&quot;);if(a){for(e=&quot;&quot;,r=parseInt(a.substr(0,2),16),n=2;a.length-n;n+=2)i=parseInt(a.substr(n,2),16)^r,e+=String.fromCharCode(i);e=document.createTextNode(e),c.parentNode.replaceChild(e,c)}}}catch(u){}}();/* ]]&gt; */&lt;/script&gt;\n&lt;a class=&quot;__cf_email__&quot; href=&quot;/cdn-cgi/l/email-protection&quot; data-cfemail=&quot;a18c8c8c8c8c8c8c8c8c8c8c8c8c8c8c8c8c8c8c8c8c8c8c8c8c8c8c8c8c8c8c8c8c8c8c8c8c8c8c8c8c8c8c8c8c8c8c8c8c8c8c8c8c8c8c8c8c8c8c8c8c8c8c8c8c&quot;&gt;[email&amp;#160;protected]&lt;/a&gt;&lt;script cf-hash='f9e31' type=&quot;text/javascript&quot;&gt;\n/* &lt;![CDATA[ */!function(){try{var t=&quot;currentScript&quot;in document?document.currentScript:function(){for(var t=document.getElementsByTagName(&quot;script&quot;),e=t.length;e--;)if(t[e].getAttribute(&quot;cf-hash&quot;))return t[e]}();if(t&amp;&amp;t.previousSibling){var e,r,n,i,c=t.previousSibling,a=c.getAttribute(&quot;data-cfemail&quot;);if(a){for(e=&quot;&quot;,r=parseInt(a.substr(0,2),16),n=2;a.length-n;n+=2)i=parseInt(a.substr(n,2),16)^r,e+=String.fromCharCode(i);e=document.createTextNode(e),c.parentNode.replaceChild(e,c)}}}catch(u){}}();/* ]]&gt; */&lt;/script&gt;-------------------------------------","torrent":{"xt":"urn:btih:abe070c63c685993df5edd37c921547f094ec6eb","amp;dn":"Underworld+Awakening+%282012%29+TS+READNFO+XviD-KiNGSEED","amp;tr":["udp%3A%2F%2Ftracker.openbittorrent.com%3A80","udp%3A%2F%2Fopen.demonii.com%3A1337","udp%3A%2F%2Ftracker.coppersurfer.tk%3A6969","udp%3A%2F%2Fexodus.desync.com%3A6969"],"infoHash":"abe070c63c685993df5edd37c921547f094ec6eb","infoHashBuffer":{"type":"Buffer","data":[171,224,112,198,60,104,89,147,223,94,221,55,201,33,84,127,9,78,198,235]},"announce":[],"urlList":[]}}